<?xml version="1.0" encoding="utf-8"?>
<svg version="1.0" xmlns="http://www.w3.org/2000/svg" width="2048pt" height="360pt" viewBox="18.888 0 1358.375 222.293" preserveAspectRatio="none" xmlns:bx="https://boxy-svg.com"><g transform="matrix(1, 0, 0, 1, -1.343873, 0.251453)"><g transform="matrix(0.1, 0, 0, -0.1, 0, 346)" fill="#000000" stroke="none"><g transform="matrix(0.383125, 0, 0, 0.383125, -28.867378, 1062.567383)" fill="#000000" stroke="none" style=""><path d="M 1440 4845 C 1440 4832 2074 3601 2150 3465 C 2166 3438 2191 3390 2207 3360 C 2223 3330 2293 3199 2362 3070 C 2432 2941 2530 2754 2582 2654 C 2777 2275 3032 1790 3035 1790 C 3037 1790 3082 1874 3135 1978 C 3189 2081 3261 2219 3295 2285 C 3329 2351 3397 2482 3445 2575 C 3546 2770 3609 2889 3655 2975 C 3673 3008 3711 3080 3740 3135 C 3769 3190 3848 3339 3915 3465 C 3982 3592 4133 3880 4250 4105 C 4367 4331 4500 4588 4546 4677 L 4630 4842.064 L 3949 4845 L 3904 4760 C 3879 4713 3804 4569 3737 4440 C 3670 4311 3576 4129 3528 4035 C 3479 3942 3421 3828 3398 3782 L 3357 3700 L 3321 3706 C 3301 3709 3278 3714 3268 3716 C 3257 3719 3208 3669 3103 3544 C 3022 3447 2949 3361 2943 3352 C 2936 3344 2929 3338 2927 3341 C 2920 3349 2479 4197 2300 4545 C 2238 4666 2177 4784 2163 4808 L 2139 4850 L 1790 4850 C 1597 4850 1440 4848 1440 4845 Z M 2075 4725 L 2220.493 4427.705 C 2219.026 4421.904 2207.109 4410.038 2203.56 4398.07 C 2195.64 4371.368 2193.524 4337.263 2188 4320 C 2175 4277 2106 4170 2091 4170 C 2078 4170 2067.363 4195.795 2060 4210 C 2035.637 4257 1956.977 4260 1946 4214 C 1937.104 4176.719 1954.126 4153.889 1989.126 4132.889 C 2011.126 4119.889 2010 4112 2007 4099 C 1997 4060 2020 4012 2070 3970 C 2097 3947 2132.258 3902.906 2156 3878 C 2195.486 3836.578 2198.63 3835.891 2234 3833 C 2260.218 3830.857 2293 3832 2329 3819 C 2360 3809 2392 3800 2402 3800 C 2414 3800 2428 3782 2444 3751 C 2457 3724 2484 3681 2504 3657 C 2524 3633 2541.562 3602.889 2540 3592 C 2536.981 3570.959 2555.806 3556.453 2585 3560 C 2592.158 3560.87 2600 3566 2617 3559 C 2631 3554 2652 3551 2662 3552 C 2681 3555 2670 3576 3064 2820 C 3129 2696 3198 2565 3218 2528 L 3254 2461 L 3150 2258 C 3094 2146 3044 2052 3041 2048 C 3035 2041 2890 2313 2558 2950 C 2533 2997 2459 3136 2393 3260 C 2120 3773 1630 4711 1630 4723 C 1630 4727 1730 4729 1853 4728 L 2075 4725 Z M 4440 4726 C 4440 4719 4330 4507 4320 4495 C 4309 4481 4179 4401 4149 4388 C 4135 4383 3946 4105 3880 3994 C 3868 3974 3797 3918 3684 3841 C 3586 3775 3505 3722 3503 3724 C 3501 3726 3533 3790 3573 3866 C 3613 3942 3718 4145 3805 4315 C 3891 4486 3976 4649 3992 4678 L 4021 4730 L 4231 4730 C 4346 4730 4440 4728 4440 4726 Z M 2415 4052 C 2412.45 4049.45 2392 4060 2369 4076 C 2355.378 4089.506 2326.242 4098.874 2311 4083 C 2302 4072 2286 4050 2276 4036 C 2266 4022 2254 4010 2251 4010 C 2247 4010 2240.262 4043.861 2212 4063 C 2131.259 4117.677 2192.542 4189.104 2212.542 4215.104 C 2242.542 4253.104 2233.273 4282.902 2233.273 4320.902 C 2237.98 4354.332 2247.168 4378.907 2255 4360 C 2266.742 4331.652 2418 4055 2415 4052 Z M 4143 4148 C 3981 3834 3977 3829 3912 3795 C 3881 3779 3773 3704 3673 3629 C 3573 3553 3487 3489 3482 3486 C 3477 3483 3429 3492 3375 3506 C 3290 3527 3274 3529 3262 3517 C 3255 3509 3198 3431 3137 3344 C 3075 3258 3020 3185 3014 3183 C 3009 3181 2996 3195 2987 3215 L 2970 3250 L 3056 3353 C 3103 3409 3169 3492 3203 3538 C 3272 3631 3262 3627 3392 3599 L 3448 3586 L 3668 3734 C 3790 3815 3898 3891 3910 3903 C 3921 3915 3985 4008 4051 4108 C 4177 4299 4201 4330 4224 4330 C 4233 4330 4203 4264 4143 4148 Z M 2360 3957 C 2360 3993 2389.778 3974.507 2421 3960 C 2439.468 3951.419 2468.208 3963.505 2473.986 3952.568 C 2545.932 3816.371 2505 3893 2570 3767 C 2616 3678 2645 3612 2634 3621 C 2624 3630 2608 3640 2599 3643 C 2578 3650 2527 3740 2505 3808 C 2487 3862 2476 3872 2388 3912 C 2366 3922 2360 3931 2360 3957 Z"/></g></g><path d="M -6.92 109.7 L 52 109.7 L 52 120.74 L -6.92 120.74 Z M -5.64 160.93 L 61.28 160.93 L 61.28 172.14 L -18.45 172.14 L -18.45 60.07 L 58.88 60.07 L 58.88 71.27 L -5.64 71.27 Z M 88.7 172.14 L 88.7 60.07 L 130.97 60.07 Q 145.38 60.07 155.7 64.71 Q 166.03 69.35 171.55 77.92 Q 177.08 86.48 177.08 98.65 Q 177.08 110.5 171.55 119.14 Q 166.03 127.79 155.7 132.35 Q 145.38 136.92 130.97 136.92 L 95.74 136.92 L 101.51 130.99 L 101.51 172.14 Z M 164.75 172.14 L 136.09 131.47 L 150.02 131.47 L 178.84 172.14 Z M 101.51 132.11 L 95.74 126.03 L 130.81 126.03 Q 147.14 126.03 155.7 118.82 Q 164.27 111.62 164.27 98.65 Q 164.27 85.52 155.7 78.4 Q 147.14 71.27 130.81 71.27 L 95.74 71.27 L 101.51 65.03 Z M 224.99 172.14 L 224.99 71.27 L 185.77 71.27 L 185.77 60.07 L 276.87 60.07 L 276.87 71.27 L 237.8 71.27 L 237.8 172.14 Z M 295.49 172.14 L 295.49 60.07 L 308.3 60.07 L 308.3 172.14 Z M 393.13 173.26 Q 380.49 173.26 369.76 169.02 Q 359.03 164.77 351.11 157.01 Q 343.18 149.24 338.78 138.84 Q 334.38 128.43 334.38 116.1 Q 334.38 103.77 338.78 93.37 Q 343.18 82.96 351.19 75.2 Q 359.19 67.43 369.92 63.19 Q 380.65 58.95 393.29 58.95 Q 405.78 58.95 416.51 63.11 Q 427.23 67.27 434.76 75.6 L 426.43 83.76 Q 419.71 76.88 411.47 73.68 Q 403.22 70.47 393.77 70.47 Q 383.69 70.47 375.2 73.92 Q 366.72 77.36 360.47 83.52 Q 354.23 89.69 350.71 98.01 Q 347.18 106.34 347.18 116.1 Q 347.18 125.87 350.71 134.19 Q 354.23 142.52 360.47 148.68 Q 366.72 154.85 375.2 158.29 Q 383.69 161.73 393.77 161.73 Q 403.22 161.73 411.47 158.53 Q 419.71 155.33 426.43 148.28 L 434.76 156.45 Q 427.23 164.77 416.51 169.02 Q 405.78 173.26 393.13 173.26 Z M 438.84 172.14 L 490.07 60.07 L 502.72 60.07 L 553.95 172.14 L 540.34 172.14 L 493.59 67.43 L 498.87 67.43 L 452.28 172.14 Z M 459.33 142.68 L 463.17 132.27 L 527.85 132.27 L 531.69 142.68 Z M 572.07 172.14 L 572.07 60.07 L 584.88 60.07 L 584.88 160.93 L 647.16 160.93 L 647.16 172.14 Z M 708.84 172.14 L 708.84 60.07 L 751.1 60.07 Q 765.51 60.07 775.84 64.71 Q 786.16 69.35 791.69 77.92 Q 797.21 86.48 797.21 98.65 Q 797.21 110.5 791.69 119.14 Q 786.16 127.79 775.84 132.43 Q 765.51 137.08 751.1 137.08 L 715.88 137.08 L 721.64 130.99 L 721.64 172.14 Z M 721.64 132.11 L 715.88 125.87 L 750.94 125.87 Q 767.27 125.87 775.84 118.74 Q 784.4 111.62 784.4 98.65 Q 784.4 85.52 775.84 78.4 Q 767.27 71.27 750.94 71.27 L 715.88 71.27 L 721.64 65.03 Z M 798.96 172.14 L 850.19 60.07 L 862.84 60.07 L 914.07 172.14 L 900.46 172.14 L 853.71 67.43 L 859 67.43 L 812.41 172.14 Z M 819.45 142.68 L 823.29 132.27 L 887.97 132.27 L 891.82 142.68 Z M 963.57 173.26 Q 950.92 173.26 939.4 169.18 Q 927.87 165.09 921.46 158.69 L 926.43 148.76 Q 932.67 154.53 942.6 158.37 Q 952.52 162.21 963.41 162.21 Q 973.82 162.21 980.3 159.65 Q 986.79 157.09 989.91 152.76 Q 993.03 148.44 993.03 143 Q 993.03 136.75 989.27 132.83 Q 985.5 128.91 979.42 126.67 Q 973.34 124.43 965.97 122.75 Q 958.61 121.07 951.32 118.98 Q 944.04 116.9 937.87 113.54 Q 931.71 110.18 928.03 104.57 Q 924.35 98.97 924.35 90.17 Q 924.35 81.68 928.75 74.64 Q 933.15 67.59 942.36 63.27 Q 951.56 58.95 965.97 58.95 Q 975.58 58.95 984.94 61.59 Q 994.31 64.23 1001.03 69.03 L 996.71 79.28 Q 989.51 74.48 981.5 72.23 Q 973.5 69.99 965.97 69.99 Q 955.89 69.99 949.48 72.63 Q 943.08 75.28 940.04 79.68 Q 936.99 84.08 936.99 89.69 Q 936.99 96.09 940.76 99.93 Q 944.52 103.77 950.6 106.02 Q 956.69 108.26 964.05 110.02 Q 971.42 111.78 978.7 113.86 Q 985.98 115.94 992.07 119.22 Q 998.15 122.51 1001.91 128.03 Q 1005.68 133.55 1005.68 142.2 Q 1005.68 150.52 1001.19 157.57 Q 996.71 164.61 987.35 168.94 Q 977.98 173.26 963.57 173.26 Z M 1062.24 173.26 Q 1049.59 173.26 1038.06 169.18 Q 1026.54 165.09 1020.13 158.69 L 1025.1 148.76 Q 1031.34 154.53 1041.27 158.37 Q 1051.19 162.21 1062.08 162.21 Q 1072.48 162.21 1078.97 159.65 Q 1085.45 157.09 1088.57 152.76 Q 1091.7 148.44 1091.7 143 Q 1091.7 136.75 1087.93 132.83 Q 1084.17 128.91 1078.09 126.67 Q 1072 124.43 1064.64 122.75 Q 1057.28 121.07 1049.99 118.98 Q 1042.71 116.9 1036.54 113.54 Q 1030.38 110.18 1026.7 104.57 Q 1023.01 98.97 1023.01 90.17 Q 1023.01 81.68 1027.42 74.64 Q 1031.82 67.59 1041.03 63.27 Q 1050.23 58.95 1064.64 58.95 Q 1074.25 58.95 1083.61 61.59 Q 1092.98 64.23 1099.7 69.03 L 1095.38 79.28 Q 1088.17 74.48 1080.17 72.23 Q 1072.16 69.99 1064.64 69.99 Q 1054.55 69.99 1048.15 72.63 Q 1041.75 75.28 1038.7 79.68 Q 1035.66 84.08 1035.66 89.69 Q 1035.66 96.09 1039.42 99.93 Q 1043.19 103.77 1049.27 106.02 Q 1055.35 108.26 1062.72 110.02 Q 1070.08 111.78 1077.37 113.86 Q 1084.65 115.94 1090.74 119.22 Q 1096.82 122.51 1100.58 128.03 Q 1104.34 133.55 1104.34 142.2 Q 1104.34 150.52 1099.86 157.57 Q 1095.38 164.61 1086.01 168.94 Q 1076.65 173.26 1062.24 173.26 Z" transform="matrix(1.017251, 0, 0, 1.042682, 215.81723, -8.834187)" style="text-wrap-mode: nowrap;"/></g><defs><bx:export><bx:file format="png" path="vertical_pass_full_logo.png"/><bx:file format="jpeg" path="vertical_pass_full_logo.jpeg"/><bx:file format="svg" units="pt" path="vertical_pass_full_logo.svg" normalization="{&quot;convertTextsToPaths&quot;:true}" width="2048" height="360"/><bx:file format="webp" path="vertical_pass_full_logo.webp"/></bx:export></defs></svg>