<?xml version="1.0" encoding="utf-8"?>
<svg version="1.0" xmlns="http://www.w3.org/2000/svg" width="1024pt" height="1024pt" viewBox="109.704 64.371 396.171 350.041" preserveAspectRatio="none" xmlns:bx="https://boxy-svg.com"><defs><bx:export><bx:file format="svg" units="pt" path="vertical_pass_logo.svg" width="1024" height="1024"/><bx:file format="webp" width="1024" height="1024" path="vertical_pass_logo.webp"/><bx:file format="jpeg" path="vertical_pass_logo.jpeg" width="1024" height="1024"/><bx:file format="png" width="1024" height="1024" dpi="100" path="vertical_pass_logo.png"/></bx:export></defs><g transform="translate(0.000000,576.000000) scale(0.100000,-0.100000)" fill="#000000" stroke="none"><path d="M 1440 4845 C 1440 4832 2074 3601 2150 3465 C 2166 3438 2191 3390 2207 3360 C 2223 3330 2293 3199 2362 3070 C 2432 2941 2530 2754 2582 2654 C 2777 2275 3032 1790 3035 1790 C 3037 1790 3082 1874 3135 1978 C 3189 2081 3261 2219 3295 2285 C 3329 2351 3397 2482 3445 2575 C 3546 2770 3609 2889 3655 2975 C 3673 3008 3711 3080 3740 3135 C 3769 3190 3848 3339 3915 3465 C 3982 3592 4133 3880 4250 4105 C 4367 4331 4500 4588 4546 4677 L 4630 4842.064 L 3949 4845 L 3904 4760 C 3879 4713 3804 4569 3737 4440 C 3670 4311 3576 4129 3528 4035 C 3479 3942 3421 3828 3398 3782 L 3357 3700 L 3321 3706 C 3301 3709 3278 3714 3268 3716 C 3257 3719 3208 3669 3103 3544 C 3022 3447 2949 3361 2943 3352 C 2936 3344 2929 3338 2927 3341 C 2920 3349 2479 4197 2300 4545 C 2238 4666 2177 4784 2163 4808 L 2139 4850 L 1790 4850 C 1597 4850 1440 4848 1440 4845 Z M 2075 4725 L 2220.493 4427.705 C 2219.026 4421.904 2207.109 4410.038 2203.56 4398.07 C 2195.64 4371.368 2193.524 4337.263 2188 4320 C 2175 4277 2106 4170 2091 4170 C 2078 4170 2067.363 4195.795 2060 4210 C 2035.637 4257 1956.977 4260 1946 4214 C 1937.104 4176.719 1954.126 4153.889 1989.126 4132.889 C 2011.126 4119.889 2010 4112 2007 4099 C 1997 4060 2020 4012 2070 3970 C 2097 3947 2132.258 3902.906 2156 3878 C 2195.486 3836.578 2198.63 3835.891 2234 3833 C 2260.218 3830.857 2293 3832 2329 3819 C 2360 3809 2392 3800 2402 3800 C 2414 3800 2428 3782 2444 3751 C 2457 3724 2484 3681 2504 3657 C 2524 3633 2541.562 3602.889 2540 3592 C 2536.981 3570.959 2555.806 3556.453 2585 3560 C 2592.158 3560.87 2600 3566 2617 3559 C 2631 3554 2652 3551 2662 3552 C 2681 3555 2670 3576 3064 2820 C 3129 2696 3198 2565 3218 2528 L 3254 2461 L 3150 2258 C 3094 2146 3044 2052 3041 2048 C 3035 2041 2890 2313 2558 2950 C 2533 2997 2459 3136 2393 3260 C 2120 3773 1630 4711 1630 4723 C 1630 4727 1730 4729 1853 4728 L 2075 4725 Z M 4440 4726 C 4440 4719 4330 4507 4320 4495 C 4309 4481 4179 4401 4149 4388 C 4135 4383 3946 4105 3880 3994 C 3868 3974 3797 3918 3684 3841 C 3586 3775 3505 3722 3503 3724 C 3501 3726 3533 3790 3573 3866 C 3613 3942 3718 4145 3805 4315 C 3891 4486 3976 4649 3992 4678 L 4021 4730 L 4231 4730 C 4346 4730 4440 4728 4440 4726 Z M 2415 4052 C 2412.45 4049.45 2392 4060 2369 4076 C 2355.378 4089.506 2326.242 4098.874 2311 4083 C 2302 4072 2286 4050 2276 4036 C 2266 4022 2254 4010 2251 4010 C 2247 4010 2240.262 4043.861 2212 4063 C 2131.259 4117.677 2192.542 4189.104 2212.542 4215.104 C 2242.542 4253.104 2233.273 4282.902 2233.273 4320.902 C 2237.98 4354.332 2247.168 4378.907 2255 4360 C 2266.742 4331.652 2418 4055 2415 4052 Z M 4143 4148 C 3981 3834 3977 3829 3912 3795 C 3881 3779 3773 3704 3673 3629 C 3573 3553 3487 3489 3482 3486 C 3477 3483 3429 3492 3375 3506 C 3290 3527 3274 3529 3262 3517 C 3255 3509 3198 3431 3137 3344 C 3075 3258 3020 3185 3014 3183 C 3009 3181 2996 3195 2987 3215 L 2970 3250 L 3056 3353 C 3103 3409 3169 3492 3203 3538 C 3272 3631 3262 3627 3392 3599 L 3448 3586 L 3668 3734 C 3790 3815 3898 3891 3910 3903 C 3921 3915 3985 4008 4051 4108 C 4177 4299 4201 4330 4224 4330 C 4233 4330 4203 4264 4143 4148 Z M 2360 3957 C 2360 3993 2389.778 3974.507 2421 3960 C 2439.468 3951.419 2468.208 3963.505 2473.986 3952.568 C 2545.932 3816.371 2505 3893 2570 3767 C 2616 3678 2645 3612 2634 3621 C 2624 3630 2608 3640 2599 3643 C 2578 3650 2527 3740 2505 3808 C 2487 3862 2476 3872 2388 3912 C 2366 3922 2360 3931 2360 3957 Z"/></g></svg>